<?xml version="1.0" standalone="no"?>
<!DOCTYPE svg PUBLIC "-//W3C//DTD SVG 20010904//EN"
 "http://www.w3.org/TR/2001/REC-SVG-20010904/DTD/svg10.dtd">
<svg version="1.0" xmlns="http://www.w3.org/2000/svg"
 width="1195.000000pt" height="810.000000pt" viewBox="0 0 1195.000000 810.000000"
 preserveAspectRatio="xMidYMid meet">
<metadata>
Created by potrace 1.16, written by Peter Selinger 2001-2019
</metadata>
<g transform="translate(0.000000,810.000000) scale(0.100000,-0.100000)"
fill="#000000" stroke="none">
<path d="M2 5948 l3 -2153 43 -84 c82 -160 172 -270 337 -414 298 -258 413
-416 460 -631 23 -103 16 -334 -15 -481 -56 -266 -28 -415 76 -415 50 0 102
27 122 64 23 43 22 243 -2 391 -34 203 -23 417 24 460 15 14 21 14 39 3 40
-25 54 -73 47 -162 -17 -205 -18 -222 -4 -261 11 -34 18 -40 44 -43 74 -7 93
102 55 334 -31 192 -24 368 16 381 5 2 22 -12 37 -32 32 -41 69 -47 87 -13 7
13 15 73 19 135 7 118 21 156 60 168 29 9 55 -16 77 -74 15 -39 18 -77 17
-241 0 -164 -5 -221 -28 -360 -38 -225 -44 -346 -22 -405 15 -38 23 -46 57
-56 30 -9 48 -9 78 0 105 31 122 158 70 513 -41 280 -15 475 78 578 92 103
241 105 293 4 12 -24 15 -68 12 -238 -2 -175 0 -213 13 -232 21 -32 64 -32 95
1 35 37 37 111 6 295 -52 310 -20 474 104 538 93 48 184 12 234 -93 61 -129
70 -345 26 -630 -11 -71 -20 -171 -20 -221 0 -78 3 -96 23 -125 43 -64 102
-62 150 5 29 41 34 176 16 401 -31 376 -12 516 90 667 16 24 39 77 52 118 20
68 54 120 78 120 23 0 73 -56 100 -113 16 -34 44 -112 62 -174 35 -122 60
-173 85 -173 8 0 28 13 44 28 22 23 29 41 34 88 29 271 71 360 113 242 11 -29
26 -87 33 -128 18 -109 31 -130 81 -130 38 0 41 3 59 43 11 24 29 90 41 146
24 110 46 151 84 151 29 0 75 -52 75 -85 0 -14 -9 -71 -20 -127 -22 -114 -26
-260 -9 -319 7 -21 27 -53 46 -71 33 -32 36 -33 121 -32 48 0 128 4 179 9 84
7 95 6 140 -15 26 -13 80 -55 119 -94 62 -63 73 -80 95 -146 l24 -75 -3 -500
c-4 -514 0 -581 35 -654 24 -49 83 -81 150 -81 63 0 100 27 135 98 36 73 32
270 -11 552 -71 461 -34 827 103 1013 11 16 40 40 64 54 110 65 240 -18 293
-186 45 -146 52 -239 45 -633 -7 -414 -5 -432 59 -462 41 -20 49 -20 86 0 21
10 39 34 57 72 29 61 30 86 20 437 -4 138 10 181 77 247 163 161 406 21 482
-278 27 -103 24 -451 -6 -789 -16 -177 -22 -302 -19 -391 4 -119 7 -137 33
-189 35 -73 86 -100 177 -93 66 5 102 26 133 79 18 30 20 52 20 179 0 126 -5
171 -37 335 -62 318 -88 540 -88 752 0 205 33 363 83 398 32 22 80 19 105 -8
40 -43 54 -96 63 -245 9 -163 20 -196 64 -200 25 -2 39 6 80 48 27 27 53 50
58 50 4 0 18 -21 30 -47 20 -43 22 -64 21 -198 0 -96 -9 -207 -23 -308 -24
-175 -29 -347 -10 -405 23 -72 81 -106 142 -83 57 22 70 112 42 296 -28 178
-32 227 -23 274 10 54 37 95 65 99 30 5 77 -41 104 -100 23 -51 24 -62 24
-268 -1 -192 -4 -232 -30 -380 -24 -135 -30 -193 -30 -320 l0 -155 31 -55 c37
-66 83 -100 134 -100 44 0 78 32 112 105 21 45 23 65 23 195 0 88 -7 196 -19
275 -26 183 -24 426 3 615 38 254 135 664 183 770 20 44 20 45 30 20 15 -40
-4 -210 -68 -602 -17 -102 -17 -108 1 -147 30 -68 71 -89 137 -70 89 24 109
163 67 462 -29 203 -30 315 -6 379 10 25 25 49 34 52 23 9 49 -19 63 -68 15
-53 15 -88 5 -238 -7 -101 -6 -120 9 -142 21 -33 55 -34 84 -3 47 50 52 118
22 342 -23 173 -24 224 -9 295 13 62 31 71 68 36 31 -30 57 -33 69 -9 5 10 12
55 15 101 8 104 33 164 76 181 25 11 34 11 47 0 71 -59 77 -280 18 -659 -30
-189 -37 -382 -16 -422 16 -30 61 -58 94 -58 35 0 82 33 109 76 22 35 24 49
22 144 -1 58 -8 151 -17 207 -73 472 -9 696 212 744 69 14 108 0 131 -50 13
-30 16 -74 16 -249 0 -212 0 -214 24 -233 13 -10 36 -19 53 -19 24 0 32 6 44
35 19 47 18 211 -3 316 -57 291 34 519 208 519 85 0 141 -53 169 -159 18 -67
13 -296 -10 -493 -22 -196 -26 -341 -9 -385 16 -43 59 -83 89 -83 47 0 94 70
105 156 4 27 2 144 -5 259 -15 268 -15 469 0 540 9 43 20 65 49 93 21 20 59
79 85 129 46 89 92 143 122 143 41 0 90 -95 123 -240 31 -134 52 -184 78 -188
30 -4 48 35 68 144 40 219 58 268 98 262 33 -5 54 -59 71 -176 16 -116 31
-142 81 -142 54 0 95 66 95 153 0 96 54 213 86 186 26 -21 34 -84 40 -304 10
-335 6 -331 293 -345 204 -10 247 -21 320 -84 123 -108 171 -427 136 -910 -21
-287 -18 -404 13 -462 28 -55 76 -78 149 -72 97 8 139 63 152 198 10 92 -1
275 -25 419 -11 63 -18 190 -21 374 -9 461 9 523 209 726 244 246 264 280 303
501 14 80 32 176 40 214 13 59 15 351 15 2087 l0 2019 -5975 0 -5975 0 2
-2152z"/>
</g>
</svg>
